# xmcd
#
# Track frame offsets:
#	187
#	18012
#	31545
#	48177
#	66552
#	84137
#	100952
#	115725
#	132927
#	150077
#	166195
#	181712
#	196420
#	212727
#	226935
#	246102
#	267960
#	279337
#	296122
#	311097
#
# Disc length: 4326 seconds
#
# Revision: 2
# Processed by: cddbd v1.4PL0 Copyright (c) Steve Scherf et al.
# Submitted via: EasyCDDAExtractor 4.5.0.2
#
DISCID=fe10e414
DTITLE=Seldom Scene - 15th Anniversary Celebration,Live At The Kennedy Center
DYEAR=1988
DGENRE=Bluegrass
TTITLE0=Sitting On Top Of The World
TTITLE1=Big Train From Memphis
TTITLE2=Lorena
TTITLE3=Dark As A Dungeon
TTITLE4=Blue Ridge
TTITLE5=Raised By The Railroad Line
TTITLE6=You Don't Know My Mind
TTITLE7=Drifting Too Far From The Shore
TTITLE8=Those Memories Of You
TTITLE9=Keep Me From Blowing Away
TTITLE10=Wheels
TTITLE11=Carolyn At The Broken Wheel Inn
TTITLE12=If I Needed You
TTITLE13=Rose Of Old Kentucky
TTITLE14=I Couldn't Find My Walking Shoes
TTITLE15=Working On A Building
TTITLE16=Say You Lied
TTITLE17=High On A Hilltop
TTITLE18=The Sweetest Gift
TTITLE19=Take Me In Your Lifeboat
EXTD=
EXTT0=
EXTT1=
EXTT2=
EXTT3=
EXTT4=
EXTT5=
EXTT6=
EXTT7=
EXTT8=
EXTT9=
EXTT10=
EXTT11=
EXTT12=
EXTT13=
EXTT14=
EXTT15=
EXTT16=
EXTT17=
EXTT18=
EXTT19=
PLAYORDER=
